<svg id="Layer_1" data-name="Layer 1" xmlns="http://www.w3.org/2000/svg" viewBox="0 0 35 35"><defs><style>.cls-1{fill:#fff;}</style></defs><title>quotation</title><g id="Outline"><path class="cls-1" d="M-304,268.12a2.33,2.33,0,0,1-1.55-2.2V243.75h1.16v22.17a1.17,1.17,0,0,0,.78,1.1Zm17.11-29.62H-303.2a2.33,2.33,0,0,0-2.33,2.33v1.75h1.16v-1.75a1.17,1.17,0,0,1,1.17-1.16h16.33a1.16,1.16,0,0,1,1.1.77l1.1-.38A2.33,2.33,0,0,0-286.87,238.5Zm4.09,9.33v-4.08a1.18,1.18,0,0,0-1.17-1.17H-296.2v2.92a2.33,2.33,0,0,1-2.33,2.33h-2.92v21a1.17,1.17,0,0,0,1.17,1.17h9.33v1.17h-9.33a2.34,2.34,0,0,1-2.34-2.34V247.25a.58.58,0,0,1,.17-.41l5.25-5.25a.59.59,0,0,1,.42-.17h12.83a2.33,2.33,0,0,1,2.33,2.33v4.08Zm-14.59-4.42-3.26,3.26h2.1a1.17,1.17,0,0,0,1.16-1.17Zm2.34,6.76v1.75h7.58v1.16H-295v1.75h5.25V256H-295v1.75h5.25v1.17H-295v1.75h5.25v1.16H-295v1.75h5.25v1.17H-295v1.75h2.91v1.17h-5.83a1.75,1.75,0,0,1-1.75-1.75V250.75a1.75,1.75,0,0,1,1.75-1.75h11.67v1.17Zm-1.17,14.58h-2.33v1.17a.58.58,0,0,0,.58.58h1.75Zm0-2.92h-2.33v1.75h2.33Zm0-2.91h-2.33v1.75h2.33Zm0-2.92h-2.33v1.75h2.33Zm0-2.92h-2.33v1.75h2.33Zm0-2.91h-1.75a.58.58,0,0,0-.58.58v1.17h2.33Zm1.17-3.5v1.16h5.25v-1.16Zm10.5-2.34H-295v1.17h10.5Zm4.23,12.84h-.15v-.59h-1.17v.59h-.15a1.6,1.6,0,0,0-1.6,1.6,1.6,1.6,0,0,0,1.1,1.52l2.11.7a.43.43,0,0,1,.27.55.43.43,0,0,1-.41.29h-1.47a.43.43,0,0,1-.43-.43v-.15h-1.17v.15a1.6,1.6,0,0,0,1.6,1.6h.15v.58h1.17V263h.15a1.6,1.6,0,0,0,1.6-1.6,1.6,1.6,0,0,0-1.09-1.52l-2.11-.7a.44.44,0,0,1-.28-.55.44.44,0,0,1,.41-.3h1.47a.44.44,0,0,1,.43.44v.15h1.17v-.15A1.6,1.6,0,0,0-280.3,257.17Zm-5.59-.88,1,.59a1.74,1.74,0,0,1,.64-.65l-.59-1a2.94,2.94,0,0,0-1.06,1.07Zm-.39,4.38h1.16v-2.92h-1.16Zm13.45-5,1.09-.43a7.05,7.05,0,0,0-3.19-3.68l-.54,1a5.87,5.87,0,0,1,2.64,3.08Zm2.3,10.87v6.42a.59.59,0,0,1-.59.58h-5.25v-1.17H-274v-5.52l-.49-.32a3.52,3.52,0,0,0-4.35.42.58.58,0,0,1-.41.17h-5a.9.9,0,0,0-.88.88.85.85,0,0,0,.08.35.86.86,0,0,0,.8.52h4.37V270h-4.37a2.1,2.1,0,0,1-.61-.09,2.05,2.05,0,0,1-1.19-1l-1.93-1.61a1.22,1.22,0,0,0-1.08-.2,1,1,0,0,0-.35,1.73c1,.83,3.21,2.5,4.17,3.25a1.13,1.13,0,0,0,.71.24h7v1.17h-7a2.31,2.31,0,0,1-1.43-.49c-.95-.75-3.11-2.42-4.17-3.24a2.15,2.15,0,0,1-.83-1.71v0a2.12,2.12,0,0,1,1.25-1.93,2.69,2.69,0,0,1,.69-1.2,1.34,1.34,0,0,0,.39-.95v-6.2a5.27,5.27,0,0,1,4.46-5.19l-.93-2.79a.59.59,0,0,1,.37-.74.58.58,0,0,1,.19,0h7a.58.58,0,0,1,.58.58.58.58,0,0,1,0,.19l-.93,2.79a5.26,5.26,0,0,1,4.46,5.19V264a1.34,1.34,0,0,0,.39.95,2.58,2.58,0,0,1,.57.86.44.44,0,0,1,.06.16h1.31A.59.59,0,0,1-270.53,266.5Zm-13.19-16.33.77,2.33h3.83l.78-2.33Zm9.5,15.14a2.49,2.49,0,0,1-.4-1.36v-6.2a4.08,4.08,0,0,0-4.08-4.08h-4.67a4.08,4.08,0,0,0-4.08,4.08V264a2.51,2.51,0,0,1-.73,1.78,1.06,1.06,0,0,0-.17.2l.21,0h0a2.27,2.27,0,0,1,.91.44l1.05.88a2,2,0,0,1,1.93-1.37h4.72a4.59,4.59,0,0,1,3-1.17h.06A4.52,4.52,0,0,1-274.22,265.31Zm2.52,1.77h-1.17v5.25h1.17Z" transform="translate(305.53 -238.5)"/></g></svg>