<svg xmlns="http://www.w3.org/2000/svg" width="31.88" height="31.88" viewBox="0 0 31.88 31.88">
  <g id="sphere-view" transform="translate(-1.946 -1.946)">
    <g id="Group_4180" data-name="Group 4180" transform="translate(1.946 1.946)">
      <g id="Group_4179" data-name="Group 4179">
        <path id="Path_10290" data-name="Path 10290" d="M27.212,4.669A15.824,15.824,0,0,0,16.812.024V0H0V10.585H.922a15.943,15.943,0,0,0,26.29,16.626,15.94,15.94,0,0,0,0-22.543ZM1.868,1.868H14.944V8.717H1.868ZM2.44,19.427A2.227,2.227,0,0,1,2.848,18.2l-.882-.584a14.3,14.3,0,0,1-.1-1.672,13.965,13.965,0,0,1,1.055-5.355H8.885a32.719,32.719,0,0,0-.38,3.726L8.2,13.151c-.651.173-1.278.369-1.864.584l.643,1.754c.474-.174.98-.335,1.5-.48q-.012.463-.012.931A31.589,31.589,0,0,0,9.482,24.1a19.09,19.09,0,0,1-3.376-1.081C3.776,22,2.44,20.694,2.44,19.427Zm3.55,6.464a14.284,14.284,0,0,1-1.273-1.459c.208.1.422.2.644.3a22.1,22.1,0,0,0,4.781,1.409q.153.4.319.785a12.861,12.861,0,0,0,1.4,2.491A14,14,0,0,1,5.99,25.891Zm19.9,0a14,14,0,0,1-5.872,3.524q.245-.333.476-.706l-1.589-.983a7.178,7.178,0,0,1-1.062,1.361l.673.69A14.173,14.173,0,0,1,16.6,30l-.028-.086a2.058,2.058,0,0,1-.632.1c-1.281,0-2.6-1.293-3.643-3.558a33.533,33.533,0,0,0,3.643.2,33.1,33.1,0,0,0,4.389-.287l1.124.483q.147-.343.286-.707A22.1,22.1,0,0,0,26.52,24.73c.222-.1.436-.2.644-.3A14.284,14.284,0,0,1,25.891,25.891Zm3.046-7.831,1.009-.742a14.075,14.075,0,0,1-.329,1.955l-.181.014c0,.047.005.094.005.14,0,1.267-1.336,2.575-3.667,3.591a21.061,21.061,0,0,1-5.158,1.419l-.239-.074-.037.115a31.14,31.14,0,0,1-4.4.3,31.136,31.136,0,0,1-4.4-.3,28.7,28.7,0,0,1-1.2-8.537q0-.841.041-1.665l.054.287c.579-.108,1.18-.2,1.786-.272L12,12.435c-.505.06-1.007.134-1.5.218q.106-1.054.28-2.068h6.034V1.9a14.157,14.157,0,0,1,1.7.207l-.673.69a7.179,7.179,0,0,1,1.062,1.361l1.589-.983q-.231-.373-.476-.706A14.092,14.092,0,0,1,30.012,15.94c0,.163,0,.325-.009.488a7.772,7.772,0,0,0-1.1-.967l-1.1,1.507A5.241,5.241,0,0,1,28.937,18.06Z" fill="#fff"/>
      </g>
    </g>
    <g id="Group_4182" data-name="Group 4182" transform="translate(22.146 5.648)">
      <g id="Group_4181" data-name="Group 4181">
        <path id="Path_10291" data-name="Path 10291" d="M318.9,80.841l-1.926.828a20.03,20.03,0,0,1,.717,1.96l2-.622A22.14,22.14,0,0,0,318.9,80.841Z" transform="translate(-316.973 -80.841)" fill="#fff"/>
      </g>
    </g>
    <g id="Group_4184" data-name="Group 4184" transform="translate(23.403 10.022)">
      <g id="Group_4183" data-name="Group 4183">
        <path id="Path_10292" data-name="Path 10292" d="M337.008,143.445l-2.046.454c.149.672.279,1.375.386,2.089l2.073-.31C337.307,144.916,337.168,144.165,337.008,143.445Z" transform="translate(-334.962 -143.445)" fill="#fff"/>
      </g>
    </g>
    <g id="Group_4186" data-name="Group 4186" transform="translate(24.038 18.955)">
      <g id="Group_4185" data-name="Group 4185">
        <path id="Path_10293" data-name="Path 10293" d="M344.17,271.3c-.02.716-.061,1.434-.121,2.133l2.088.18c.064-.74.107-1.5.128-2.255Z" transform="translate(-344.049 -271.3)" fill="#fff"/>
      </g>
    </g>
    <g id="Group_4188" data-name="Group 4188" transform="translate(23.403 23.206)">
      <g id="Group_4187" data-name="Group 4187">
        <path id="Path_10294" data-name="Path 10294" d="M335.349,332.146c-.107.714-.237,1.416-.386,2.089l2.046.454c.16-.72.3-1.471.413-2.233Z" transform="translate(-334.963 -332.146)" fill="#fff"/>
      </g>
    </g>
    <g id="Group_4190" data-name="Group 4190" transform="translate(23.842 14.235)">
      <g id="Group_4189" data-name="Group 4189">
        <path id="Path_10295" data-name="Path 10295" d="M341.612,203.744l-.369,2.063c.678.121,1.342.264,1.974.426l.519-2.031C343.055,204.028,342.34,203.874,341.612,203.744Z" transform="translate(-341.243 -203.744)" fill="#fff"/>
      </g>
    </g>
    <g id="Group_4192" data-name="Group 4192" transform="translate(3.128 16.296)">
      <g id="Group_4191" data-name="Group 4191">
        <path id="Path_10296" data-name="Path 10296" d="M46.707,233.243a12.5,12.5,0,0,0-1.938,1.212l1.281,1.659a10.4,10.4,0,0,1,1.613-1Z" transform="translate(-44.769 -233.243)" fill="#fff"/>
      </g>
    </g>
    <g id="Group_4194" data-name="Group 4194" transform="translate(27.732 15.327)">
      <g id="Group_4193" data-name="Group 4193">
        <path id="Path_10297" data-name="Path 10297" d="M397.624,219.374l-.7,1.976a16.9,16.9,0,0,1,1.82.759l.925-1.881A19,19,0,0,0,397.624,219.374Z" transform="translate(-396.926 -219.374)" fill="#fff"/>
      </g>
    </g>
    <g id="Group_4196" data-name="Group 4196" transform="translate(19.807 13.748)">
      <g id="Group_4195" data-name="Group 4195">
        <path id="Path_10298" data-name="Path 10298" d="M283.6,196.765l-.111,2.093c.682.036,1.364.092,2.027.167l.235-2.083C285.05,196.863,284.326,196.8,283.6,196.765Z" transform="translate(-283.492 -196.765)" fill="#fff"/>
      </g>
    </g>
    <g id="Group_4198" data-name="Group 4198" transform="translate(15.61 13.694)">
      <g id="Group_4197" data-name="Group 4197">
        <path id="Path_10299" data-name="Path 10299" d="M225.571,196c-.72,0-1.445.025-2.154.067l.125,2.092c.67-.04,1.355-.061,2.036-.063Z" transform="translate(-223.417 -196.003)" fill="#fff"/>
      </g>
    </g>
    <g id="Group_4200" data-name="Group 4200" transform="translate(3.843 4.394)">
      <g id="Group_4199" data-name="Group 4199">
        <path id="Path_10300" data-name="Path 10300" d="M58.01,65.446a1.057,1.057,0,0,0-.169-.306.965.965,0,0,0-.256-.225.9.9,0,0,0-.329-.118.835.835,0,0,0,.3-.112.912.912,0,0,0,.236-.208,1.024,1.024,0,0,0,.157-.275.887.887,0,0,0,.058-.32.8.8,0,0,0-.1-.407.96.96,0,0,0-.291-.312,1.427,1.427,0,0,0-.454-.2,2.315,2.315,0,0,0-.587-.07,2.936,2.936,0,0,0-.465.036,2.684,2.684,0,0,0-.428.1,1.963,1.963,0,0,0-.361.16,1.138,1.138,0,0,0-.265.2l.7.792a.917.917,0,0,1,.311-.295.774.774,0,0,1,.381-.1.451.451,0,0,1,.279.076.25.25,0,0,1,.1.211.319.319,0,0,1-.169.284.846.846,0,0,1-.448.1H56v.741h.18a1.29,1.29,0,0,1,.57.093.32.32,0,0,1,.174.306.305.305,0,0,1-.137.278.83.83,0,0,1-.433.087,1.455,1.455,0,0,1-.433-.059,1.147,1.147,0,0,1-.358-.188L55,66.5a1.857,1.857,0,0,0,.622.34,2.6,2.6,0,0,0,.791.109,2.806,2.806,0,0,0,.692-.079,1.583,1.583,0,0,0,.521-.227,1.061,1.061,0,0,0,.329-.362.982.982,0,0,0,.116-.477A1.07,1.07,0,0,0,58.01,65.446Z" transform="translate(-55 -62.894)" fill="#fff"/>
      </g>
    </g>
    <g id="Group_4202" data-name="Group 4202" transform="translate(7.321 3.608)">
      <g id="Group_4201" data-name="Group 4201">
        <path id="Path_10301" data-name="Path 10301" d="M107.775,53.8a1.287,1.287,0,0,0-.305-.416,1.4,1.4,0,0,0-.46-.275,1.652,1.652,0,0,0-.579-.1.933.933,0,0,0-.628.191.672.672,0,0,1,.177-.469.61.61,0,0,1,.451-.166,1.009,1.009,0,0,1,.721.3l.611-.685a1.831,1.831,0,0,0-1.315-.539,1.612,1.612,0,0,0-.7.146,1.451,1.451,0,0,0-.523.418,1.921,1.921,0,0,0-.329.663,3.171,3.171,0,0,0-.113.884,2.3,2.3,0,0,0,.4,1.449,1.373,1.373,0,0,0,1.149.517,1.681,1.681,0,0,0,.614-.109,1.585,1.585,0,0,0,.492-.3,1.319,1.319,0,0,0,.442-1A1.223,1.223,0,0,0,107.775,53.8Zm-.983.713a.564.564,0,0,1-.108.163.516.516,0,0,1-.157.112.445.445,0,0,1-.378,0,.515.515,0,0,1-.157-.112.557.557,0,0,1-.108-.163.476.476,0,0,1-.041-.194.443.443,0,0,1,.145-.334.511.511,0,0,1,.7,0,.443.443,0,0,1,.145.334A.476.476,0,0,1,106.792,54.51Z" transform="translate(-104.785 -51.644)" fill="#fff"/>
      </g>
    </g>
    <g id="Group_4204" data-name="Group 4204" transform="translate(10.875 4.276)">
      <g id="Group_4203" data-name="Group 4203">
        <path id="Path_10302" data-name="Path 10302" d="M158.618,62.233a1.653,1.653,0,0,0-.323-.539,1.493,1.493,0,0,0-.489-.357,1.523,1.523,0,0,0-1.227,0,1.49,1.49,0,0,0-.489.357,1.649,1.649,0,0,0-.323.539,2.059,2.059,0,0,0,0,1.364,1.652,1.652,0,0,0,.323.539,1.457,1.457,0,0,0,.489.354,1.554,1.554,0,0,0,1.227,0,1.458,1.458,0,0,0,.489-.354,1.653,1.653,0,0,0,.323-.539,2.059,2.059,0,0,0,0-1.364ZM157.5,63.44a.351.351,0,0,1-.305.2.358.358,0,0,1-.317-.2,1.014,1.014,0,0,1-.119-.525,1.03,1.03,0,0,1,.119-.528.358.358,0,0,1,.317-.2.35.35,0,0,1,.305.2,1.031,1.031,0,0,1,.119.528A1.016,1.016,0,0,1,157.5,63.44Z" transform="translate(-155.652 -61.208)" fill="#fff"/>
      </g>
    </g>
    <g id="Group_4206" data-name="Group 4206" transform="translate(14.336 3.563)">
      <g id="Group_4205" data-name="Group 4205">
        <path id="Path_10303" data-name="Path 10303" d="M206.378,51.182a.777.777,0,0,0-1,0,.605.605,0,0,0-.192.458.684.684,0,0,0,.192.5.673.673,0,0,0,.5.194.653.653,0,0,0,.692-.7A.605.605,0,0,0,206.378,51.182Zm-.372.612a.172.172,0,0,1-.128.053.187.187,0,0,1-.131-.051.167.167,0,0,1-.055-.129.156.156,0,0,1,.058-.126.2.2,0,0,1,.128-.048.183.183,0,0,1,.128.048.163.163,0,0,1,.052.126A.174.174,0,0,1,206.006,51.795Z" transform="translate(-205.186 -51)" fill="#fff"/>
      </g>
    </g>
  </g>
</svg>
