<svg xmlns="http://www.w3.org/2000/svg" width="31.144" height="31.144" viewBox="0 0 31.144 31.144">
  <g id="noun_Phone_1795072" transform="translate(6.215) rotate(14)">
    <g id="Group_6" data-name="Group 6" transform="translate(0 0)">
      <path id="Path_67" data-name="Path 67" d="M38.18,43.4a8.521,8.521,0,0,0,4.179-1.063,1.992,1.992,0,0,0,1.02-1.477,1.967,1.967,0,0,0-.562-1.681l-3.842-3.842a2,2,0,0,0-1.905-.516,9.047,9.047,0,0,1-8.78-2,9.049,9.049,0,0,1-2-8.78,2,2,0,0,0-.516-1.905L21.929,18.29a1.967,1.967,0,0,0-1.681-.562,1.994,1.994,0,0,0-1.477,1.021c-2.591,4.691-.408,10.884,6.148,17.44C29.675,40.945,34.241,43.4,38.18,43.4Z" transform="translate(-17.708 -17.708)" fill="#fff"/>
      <path id="Path_68" data-name="Path 68" d="M48.18,39.723a.4.4,0,0,0-.19.772,6.245,6.245,0,0,1,3.926,3.926.4.4,0,0,0,.386.3.382.382,0,0,0,.1-.012.4.4,0,0,0,.291-.481,7.015,7.015,0,0,0-4.508-4.508Z" transform="translate(-35.762 -30.958)" fill="#fff"/>
      <path id="Path_69" data-name="Path 69" d="M52.952,20.3a.4.4,0,1,0-.19.772,14.106,14.106,0,0,1,9.754,9.754.4.4,0,0,0,.386.3.382.382,0,0,0,.1-.012.4.4,0,0,0,.291-.481A14.9,14.9,0,0,0,52.952,20.3Z" transform="translate(-38.635 -19.262)" fill="#fff"/>
      <path id="Path_70" data-name="Path 70" d="M57.216,37.624a.4.4,0,0,0,.386.3.382.382,0,0,0,.1-.012.4.4,0,0,0,.291-.481,10.936,10.936,0,0,0-7.422-7.422.4.4,0,0,0-.19.772,10.15,10.15,0,0,1,6.84,6.84Z" transform="translate(-37.198 -25.11)" fill="#fff"/>
    </g>
  </g>
</svg>
