<svg id="Layer_1" data-name="Layer 1" xmlns="http://www.w3.org/2000/svg" viewBox="0 0 35 35"><path d="M-304 268.12a2.33 2.33 0 01-1.55-2.2v-22.17h1.16v22.17a1.17 1.17 0 00.78 1.1zm17.11-29.62h-16.31a2.33 2.33 0 00-2.33 2.33v1.75h1.16v-1.75a1.17 1.17 0 011.17-1.16h16.33a1.16 1.16 0 011.1.77l1.1-.38a2.33 2.33 0 00-2.2-1.56zm4.09 9.33v-4.08a1.18 1.18 0 00-1.17-1.17h-12.23v2.92a2.33 2.33 0 01-2.33 2.33h-2.92v21a1.17 1.17 0 001.17 1.17h9.33v1.17h-9.33a2.34 2.34 0 01-2.34-2.34v-21.58a.58.58 0 01.17-.41l5.25-5.25a.59.59 0 01.42-.17h12.83a2.33 2.33 0 012.33 2.33v4.08zm-14.59-4.42l-3.26 3.26h2.1a1.17 1.17 0 001.16-1.17zm2.34 6.76v1.75h7.58v1.16H-295v1.75h5.25V256H-295v1.75h5.25v1.17H-295v1.75h5.25v1.16H-295v1.75h5.25v1.17H-295v1.75h2.91v1.17h-5.83a1.75 1.75 0 01-1.75-1.75v-15.17a1.75 1.75 0 011.75-1.75h11.67v1.17zm-1.17 14.58h-2.33v1.17a.58.58 0 00.58.58h1.75zm0-2.92h-2.33v1.75h2.33zm0-2.91h-2.33v1.75h2.33zm0-2.92h-2.33v1.75h2.33zm0-2.92h-2.33v1.75h2.33zm0-2.91h-1.75a.58.58 0 00-.58.58v1.17h2.33zm1.17-3.5v1.16h5.25v-1.16zm10.5-2.34H-295v1.17h10.5zm4.23 12.84h-.15v-.59h-1.17v.59h-.15a1.6 1.6 0 00-1.6 1.6 1.6 1.6 0 001.1 1.52l2.11.7a.43.43 0 01.27.55.43.43 0 01-.41.29h-1.47a.43.43 0 01-.43-.43v-.15h-1.17v.15a1.6 1.6 0 001.6 1.6h.15v.58h1.17V263h.15a1.6 1.6 0 001.6-1.6 1.6 1.6 0 00-1.09-1.52l-2.11-.7a.44.44 0 01-.28-.55.44.44 0 01.41-.3h1.47a.44.44 0 01.43.44v.15h1.17v-.15a1.6 1.6 0 00-1.58-1.6zm-5.59-.88l1 .59a1.74 1.74 0 01.64-.65l-.59-1a2.94 2.94 0 00-1.06 1.07zm-.39 4.38h1.16v-2.92h-1.16zm13.45-5l1.09-.43a7.05 7.05 0 00-3.19-3.68l-.54 1a5.87 5.87 0 012.64 3.08zm2.3 10.87v6.42a.59.59 0 01-.59.58h-5.25v-1.17h2.39v-5.52l-.49-.32a3.52 3.52 0 00-4.35.42.58.58 0 01-.41.17h-5a.9.9 0 00-.88.88.85.85 0 00.08.35.86.86 0 00.8.52h4.37V270h-4.37a2.1 2.1 0 01-.61-.09 2.05 2.05 0 01-1.19-1l-1.93-1.61a1.22 1.22 0 00-1.08-.2 1 1 0 00-.35 1.73c1 .83 3.21 2.5 4.17 3.25a1.13 1.13 0 00.71.24h7v1.17h-7a2.31 2.31 0 01-1.43-.49c-.95-.75-3.11-2.42-4.17-3.24a2.15 2.15 0 01-.83-1.71 2.12 2.12 0 011.25-1.93 2.69 2.69 0 01.69-1.2 1.34 1.34 0 00.39-.95v-6.2a5.27 5.27 0 014.46-5.19l-.93-2.79a.59.59 0 01.37-.74.58.58 0 01.19 0h7a.58.58 0 01.58.58.58.58 0 010 .19l-.93 2.79a5.26 5.26 0 014.46 5.19v6.2a1.34 1.34 0 00.39.95 2.58 2.58 0 01.57.86.44.44 0 01.06.16h1.31a.59.59 0 01.57.53zm-13.19-16.33l.77 2.33h3.83l.78-2.33zm9.5 15.14a2.49 2.49 0 01-.4-1.36v-6.2a4.08 4.08 0 00-4.08-4.08h-4.67a4.08 4.08 0 00-4.08 4.08V264a2.51 2.51 0 01-.73 1.78 1.06 1.06 0 00-.17.2h.21a2.27 2.27 0 01.91.44l1.05.88a2 2 0 011.93-1.37h4.72a4.59 4.59 0 013-1.17h.06a4.52 4.52 0 012.27.55zm2.52 1.77h-1.17v5.25h1.17z" transform="translate(305.53 -238.5)" fill="#fff" id="Outline"/></svg>